HIERARCHY
ROOT joint_Root
{
  OFFSET 0 0 0
  CHANNELS 6 Xposition Yposition Zposition Zrotation Xrotation Yrotation
  JOINT Hips
  {
    OFFSET 0 93.9241 -3
    CHANNELS 6 Xposition Yposition Zposition Zrotation Xrotation Yrotation
    JOINT Spine
    {
      OFFSET 15.7357 0 0
      CHANNELS 6 Xposition Yposition Zposition Zrotation Xrotation Yrotation
      JOINT Chest
      {
        OFFSET 8.98455 -0.406207 0
        CHANNELS 6 Xposition Yposition Zposition Zrotation Xrotation Yrotation
        JOINT Neck
        {
          OFFSET 16.3773 0 0
          CHANNELS 6 Xposition Yposition Zposition Zrotation Xrotation Yrotation
          JOINT Head
          {
            OFFSET 6.45672 0 0
            CHANNELS 6 Xposition Yposition Zposition Zrotation Xrotation Yrotation
            End Site
            {
              OFFSET 0 0 0
            }
          }
        }
        JOINT Shoulder_L
        {
          OFFSET 12.9942 -0.242716 4.98039
          CHANNELS 6 Xposition Yposition Zposition Zrotation Xrotation Yrotation
          JOINT UpperArm_L
          {
            OFFSET 5.34809 0 0
            CHANNELS 6 Xposition Yposition Zposition Zrotation Xrotation Yrotation
            JOINT LowerArm_L
            {
              OFFSET 24.3286 1.87007e-05 0
              CHANNELS 6 Xposition Yposition Zposition Zrotation Xrotation Yrotation
              JOINT Hand_L
              {
                OFFSET 22.2916 0 0
                CHANNELS 6 Xposition Yposition Zposition Zrotation Xrotation Yrotation
                End Site
                {
                  OFFSET 0 0 0
                }
              }
            }
          }
        }
        JOINT Shoulder_R
        {
          OFFSET 12.9945 -0.242716 -4.98039
          CHANNELS 6 Xposition Yposition Zposition Zrotation Xrotation Yrotation
          JOINT UpperArm_R
          {
            OFFSET -5.34813 0 0
            CHANNELS 6 Xposition Yposition Zposition Zrotation Xrotation Yrotation
            JOINT LowerArm_R
            {
              OFFSET -24.3289 0.000322201 0
              CHANNELS 6 Xposition Yposition Zposition Zrotation Xrotation Yrotation
              JOINT Hand_R
              {
                OFFSET -22.2915 -0.000108084 0
                CHANNELS 6 Xposition Yposition Zposition Zrotation Xrotation Yrotation
                End Site
                {
                  OFFSET 0 0 0
                }
              }
            }
          }
        }
      }
    }
    JOINT UpperLeg_L
    {
      OFFSET -2.19248 -6.46944 0
      CHANNELS 6 Xposition Yposition Zposition Zrotation Xrotation Yrotation
      JOINT LowerLeg_L
      {
        OFFSET 39.0811 0 -1.23785e-05
        CHANNELS 6 Xposition Yposition Zposition Zrotation Xrotation Yrotation
        JOINT Foot_L
        {
          OFFSET 40.9854 0 -1.26872e-05
          CHANNELS 6 Xposition Yposition Zposition Zrotation Xrotation Yrotation
          JOINT Toes_L
          {
            OFFSET 11.7543 0 0
            CHANNELS 6 Xposition Yposition Zposition Zrotation Xrotation Yrotation
            End Site
            {
              OFFSET 0 0 0
            }
          }
        }
      }
    }
    JOINT UpperLeg_R
    {
      OFFSET -2.19251 6.46944 0
      CHANNELS 6 Xposition Yposition Zposition Zrotation Xrotation Yrotation
      JOINT LowerLeg_R
      {
        OFFSET -39.0811 -0.00228153 -0.0401928
        CHANNELS 6 Xposition Yposition Zposition Zrotation Xrotation Yrotation
        JOINT Foot_R
        {
          OFFSET -40.9854 0 0
          CHANNELS 6 Xposition Yposition Zposition Zrotation Xrotation Yrotation
          JOINT Toes_R
          {
            OFFSET -11.7543 0 0
            CHANNELS 6 Xposition Yposition Zposition Zrotation Xrotation Yrotation
            End Site
            {
              OFFSET 0 0 0
            }
          }
        }
      }
    }
  }
}
MOTION
Frames:	5
Frame Time:	0.0333333
0 0 0 0 0 -0 -177.484 86.5759 27.0476 84.3504 4.13254 0.887175 15.7357 5.1072e-06 -5.51765e-07 121.271 82.5332 -119.485 8.98455 -0.406207 -4.3199e-07 4.91587 7.69203 3.24103 16.3773 -1.3905e-06 -6.99897e-07 -8.92337 -3.0461 -9.61776 6.45672 -1.25837e-06 -1.02172e-07 -4.31132 -16.1863 -12.2845 12.9942 -0.242716 4.98039 -90.6788 2.93203 -91.9902 5.34809 -7.22636e-06 -6.2814e-07 -72.9912 17.2548 13.4915 24.3286 1.87007e-05 4.90208e-06 38.4234 -18.1136 -111.402 22.2916 -9.88446e-07 4.63217e-06 16.5086 5.36684 -1.88968 12.9945 -0.242716 -4.98039 89.7326 4.90801 -101.893 -5.34813 -1.25947e-06 -3.79883e-06 -62.0519 19.837 6.61483 -24.3289 0.000322201 -8.65921e-06 16.6194 -4.72873 -105.437 -22.2915 -0.000108084 -4.47941e-06 57.8085 5.6817 -20.0674 -2.19248 -6.46944 -1.22534e-07 -172.307 0.805768 -41.7417 39.0811 -6.73843e-06 -1.23785e-05 -0.967414 -0.566936 119.501 40.9854 -6.48686e-06 -1.26872e-05 11.3898 -10.7585 -37.8127 11.7543 -2.30145e-07 3.05095e-06 0.389026 -0.466337 -21.0032 -2.19251 6.46944 -1.45247e-06 -168.477 6.92395 161.532 -39.0811 -0.00228153 -0.0401928 -0.0101956 0.0709626 45.07 -40.9854 7.72618e-06 5.99936e-06 2.68697 -9.56534 -77.336 -11.7543 -5.6619e-06 -5.58687e-06 0.0248198 -0.02576 -16.773 
0 0 0 0 0 -0 -177.034 87.0906 35.471 86.994 3.83481 0.234674 15.7357 5.1072e-06 -5.51765e-07 129.986 81.622 -128.981 8.98455 -0.406207 -4.3199e-07 5.04926 10.7214 1.53779 16.3773 -1.3905e-06 -6.99897e-07 -8.09575 0.601361 -8.40803 6.45672 -1.25837e-06 -1.02172e-07 -3.34988 -14.5968 -12.8399 12.9942 -0.242716 4.98039 -90.7006 2.17499 -87.1157 5.34809 -7.22636e-06 -6.2814e-07 -72.8605 10.9702 25.6547 24.3286 1.87007e-05 4.90208e-06 34.4973 -16.8376 -112.858 22.2916 -9.88446e-07 4.63217e-06 17.7054 5.38416 -2.43265 12.9945 -0.242716 -4.98039 90.0224 2.42352 -105.564 -5.34813 -1.25947e-06 -3.79883e-06 -60.4414 9.74573 -8.48811 -24.3289 0.000322201 -8.65921e-06 21.8515 -6.90631 -106.685 -22.2915 -0.000108084 -4.47941e-06 52.8616 5.67963 -19.0556 -2.19248 -6.46944 -1.22534e-07 -177.337 2.82134 -50.0203 39.0811 -6.73843e-06 -1.23785e-05 -1.10483 -0.626595 118.736 40.9854 -6.48686e-06 -1.26872e-05 10.8989 -14.3244 -44.0009 11.7543 -2.30145e-07 3.05095e-06 0.410079 -0.493779 -21.2551 -2.19251 6.46944 -1.45247e-06 -172.168 9.54199 169.266 -39.0811 -0.00228153 -0.0401928 0.162472 -0.119109 41.4472 -40.9854 7.72618e-06 5.99936e-06 3.4182 -6.60731 -79.9771 -11.7543 -5.6619e-06 -5.58687e-06 -0.0516647 -0.448017 -18.2495 
0 0 0 0 0 -0 -176.179 89.5775 43.7599 91.4319 3.72031 -3.5595 15.7357 5.1072e-06 -5.51765e-07 144.299 81.3443 -145.372 8.98455 -0.406207 -4.3199e-07 2.54099 14.0961 -2.46667 16.3773 -1.3905e-06 -6.99897e-07 -6.22923 2.59044 -5.94498 6.45672 -1.25837e-06 -1.02172e-07 0.100502 -13.0804 -10.0768 12.9942 -0.242716 4.98039 -89.7054 -0.704598 -82.4352 5.34809 -7.22636e-06 -6.2814e-07 -68.4477 10.4018 34.0684 24.3286 1.87007e-05 4.90208e-06 30.0788 -16.6208 -116.285 22.2916 -9.88446e-07 4.63217e-06 22.2978 5.35037 -1.43646 12.9945 -0.242716 -4.98039 89.9861 -0.389486 -107.035 -5.34813 -1.25947e-06 -3.79883e-06 -67.4574 -0.151668 -17.4117 -24.3289 0.000322201 -8.65921e-06 22.5523 -9.46158 -111.605 -22.2915 -0.000108084 -4.47941e-06 49.1458 5.66635 -16.719 -2.19248 -6.46944 -1.22533e-07 176.427 6.3876 -56.6842 39.0811 -6.73843e-06 -1.23785e-05 -0.897476 -0.323188 108.403 40.9854 -6.48686e-06 -1.26872e-05 8.49786 -15.3512 -49.4537 11.7543 -2.30145e-07 3.05095e-06 0.417723 -0.503809 -21.3469 -2.19251 6.46944 -1.45247e-06 -177.481 9.08539 174.869 -39.0811 -0.00228153 -0.0401928 0.0754972 -0.0536201 32.9921 -40.9854 7.72618e-06 5.99936e-06 1.46471 -5.80293 -71.4387 -11.7543 -5.6619e-06 -5.58687e-06 0.663562 -1.09473 -25.1845 
0 0 0 0 0 -0 -175.307 93.0368 51.9295 95.3185 3.96877 -7.72406 15.7357 5.1072e-06 -5.51765e-07 156.853 80.4244 -159.956 8.98455 -0.406207 -4.3199e-07 0.298538 17.8077 -6.2883 16.3773 -1.3905e-06 -6.99897e-07 -4.95816 2.92088 -3.81165 6.45672 -1.25837e-06 -1.02172e-07 3.69142 -12.146 -4.95982 12.9942 -0.242716 4.98039 -88.3189 -3.78693 -81.0403 5.34809 -7.22636e-06 -6.2814e-07 -63.8997 11.27 38.738 24.3286 1.87007e-05 4.90208e-06 28.2336 -17.4299 -119.164 22.2916 -9.88446e-07 4.63217e-06 25.7849 5.30506 -0.0650999 12.9945 -0.242716 -4.98039 89.9284 -2.09014 -106.963 -5.34813 -1.25947e-06 -3.79883e-06 -72.0939 -5.45245 -20.9051 -24.3289 0.000322201 -8.65921e-06 14.582 -8.70722 -120.22 -22.2915 -0.000108084 -4.47941e-06 49.4196 5.62182 -12.816 -2.19248 -6.46944 -1.22534e-07 172.838 10.691 -58.6656 39.0811 -6.73843e-06 -1.23785e-05 -0.557815 -0.0224678 90.6254 40.9854 -6.48686e-06 -1.26872e-05 6.73035 -13.5841 -51.9572 11.7543 -2.30144e-07 3.05095e-06 0.40838 -0.491557 -21.2347 -2.19251 6.46944 -1.45247e-06 178.233 9.93866 178.107 -39.0811 -0.00228153 -0.0401928 0.0465724 -0.0493937 24.5266 -40.9854 7.72618e-06 5.99936e-06 3.55177 -6.53322 -53.5025 -11.7543 -5.6619e-06 -5.58687e-06 2.06618 -3.1095 -37.4262 
0 0 0 0 0 -0 -174.973 96.1016 60.3225 94.8712 4.7013 -8.6967 15.7357 5.1072e-06 -5.51765e-07 161.79 79.7087 -164.918 8.98455 -0.406207 -4.3199e-07 -0.771105 19.7813 -6.16555 16.3773 -1.3905e-06 -6.99897e-07 -5.29275 3.2209 -1.97824 6.45672 -1.25837e-06 -1.02172e-07 7.05449 -10.2144 -0.345303 12.9942 -0.242716 4.98039 -87.4655 -5.8872 -81.6549 5.34809 -7.22636e-06 -6.2814e-07 -62.7776 10.2531 42.615 24.3286 1.87007e-05 4.90208e-06 25.7069 -17.3098 -121.722 22.2916 -9.88446e-07 4.63217e-06 28.1302 5.34619 -1.2504 12.9945 -0.242716 -4.98039 89.933 -2.97206 -106.294 -5.34813 -1.25947e-06 -3.79883e-06 -73.2694 -5.10312 -19.6264 -24.3289 0.000322201 -8.65921e-06 12.764 -9.317 -125.545 -22.2915 -0.000108084 -4.47941e-06 49.429 5.61057 -11.9937 -2.19248 -6.46944 -1.22533e-07 174.505 12.942 -53.1741 39.0811 -6.73843e-06 -1.23785e-05 -0.255117 0.0913332 67.8062 40.9854 -6.48686e-06 -1.26872e-05 4.89008 -9.16836 -51.4317 11.7543 -2.30145e-07 3.05095e-06 0.411567 -0.495718 -21.2729 -2.19251 6.46944 -1.45247e-06 178.008 12.6291 179.481 -39.0811 -0.00228153 -0.0401928 0.0375643 -0.0395055 24.4574 -40.9854 7.72618e-06 5.99936e-06 4.00406 -6.8709 -38.9096 -11.7543 -5.6619e-06 -5.58687e-06 1.23713 -1.55575 -27.6427 
